<svg xmlns="http://www.w3.org/2000/svg" xmlns:xlink="http://www.w3.org/1999/xlink" width="201" height="193" viewBox="0 0 201 193">
  <defs>
    <clipPath id="clip-path">
      <rect id="Rectangle_20" data-name="Rectangle 20" width="201" height="193" transform="translate(327 367)" fill="#fff" stroke="#000000" stroke-width="1"/>
    </clipPath>
  </defs>
  <g id="Adho_Mukha_Svanasana" data-name="Adho Mukha Svanasana" transform="translate(-327 -367)" clip-path="url(#clip-path)">
    <path id="Adho_Mukha_Svanasana-2" data-name="Adho Mukha Svanasana" d="M869.6-1615.917c-.388.916-5.277,1.616-10.337.718-1.072-.192-2.134-.358-3.23-.528-5.35-.839-11.416-1.787-23.085-6.293a86.577,86.577,0,0,1-21.327-11.509c-.377-.272-.729-.525-1.058-.758a7.291,7.291,0,0,0-.062-.828,31.851,31.851,0,0,1,.825-11.509,64.892,64.892,0,0,1,7.509,7.4c4.137,5.066,13.422,10.087,18.59,12.629,7.089,3.487,15.071,6.608,19.863,7.767a68.528,68.528,0,0,0,11.673,2.111C869.566-1616.239,869.623-1615.968,869.6-1615.917Zm-62.891-13.729c-3.327,2.562-8.987,2.939-13.762.918-9.154-3.875-13.033-14.424-12.76-22.587a7.592,7.592,0,0,1,3.079-6.159c8.886,9.214,23.183,22.2,25.516,23.72.1.062.2.132.3.2A5.78,5.78,0,0,1,806.711-1629.646Zm-25.364-31.994c4.742-1.309,7.576-4.1,8.113-7.013a9.6,9.6,0,0,0,0-1.724c.083-.438.028-.638-1.621-2.49-1.212-1.359-5.82-1.457-8.577.539s-4.69,4.082-2.45,7.443a26.82,26.82,0,0,0,1.773,2.3,24.532,24.532,0,0,1-5.184.218c-5.906-.376-11.579-4.255-14.806-10.121-2.935-5.338-9.4-21.616-11.363-30.788,2.439-3.416,4.213-6.348,4.573-7.725.122-.47.269-.98.422-1.509.781-2.711,1.589-5.515.594-7.066a2.238,2.238,0,0,0-1.609-1,3.385,3.385,0,0,0-2.871,1.136c-2.11,2.067-3.851,7.136-2.991,13.806.082.63.2,1.313.341,2.041a106.038,106.038,0,0,1-11.733,13.712c-2.425,2.27-6.8,6.608-11.873,11.631-2.893,2.869-6.035,5.981-9.063,8.953,1.589-12.864,4.338-30.337,9.48-47.132,3.582-11.7,8.422-18.962,14.386-21.581a14.058,14.058,0,0,1,11.853.563c6.35,3.038,11.2,12.647,16.3,23.582,2.351,3.927,5.557,7.439,7.387,11.054,4.931,7.43,8.422,14.451,13.969,19.792,4.362,4.2,8.13,7.83,8.115,10.22-.047,7.235-3.994,9.412-8.172,11.716-.977.539-1.961,1.085-2.885,1.7C782.7-1660.174,781.99-1660.934,781.347-1661.64Zm-3.332-4.048c-1.954-2.933.026-4.554,2.212-6.109s5.726-1.013,6.532-.109c.759.853.885,1.119,1.279,1.529.16.024.267.011,0,1.46-.571,3.107-3.834,5.105-7.81,6.019A30.217,30.217,0,0,1,778.015-1665.687Zm-31.232-40.133c-.8-6.177.717-10.774,2.569-12.588a2.273,2.273,0,0,1,1.467-.752,1.2,1.2,0,0,1,.178.014.773.773,0,0,1,.6.349c.642,1-.171,3.824-.766,5.885-.155.54-.306,1.062-.432,1.545a27.172,27.172,0,0,1-3.539,6.122C746.835-1705.443,746.808-1705.635,746.784-1705.821Zm62.238,55.318c-4.763-4.037-9.687-8.211-9.477-10.521.006-.058.014-.094.012-.107,1.168-.371,7.095,4.02,11.867,7.538l.945.7a20.692,20.692,0,0,0-1.743,3.757Zm-134.069,20.831a2.141,2.141,0,0,1,2.068-.271.892.892,0,0,1,.586.854,1.672,1.672,0,0,1-1.092,1.3,1.668,1.668,0,0,1-1.865-.51,3.913,3.913,0,0,1-.579-.708A5.4,5.4,0,0,1,674.952-1629.672Zm194.686,11.658a.741.741,0,0,0-.423-.137c-.03,0-3.148-.038-11.585-2.078-8.153-1.973-30.841-11.54-37.675-19.907a69.031,69.031,0,0,0-8.174-8.011,19.6,19.6,0,0,1,1.747-3.9c5.554,4.078,12.043,8.7,17.858,11.611a148.693,148.693,0,0,0,30.215,11.171c.86.225,1.687.44,2.168.588-.1.644-.735,2.183-10,1.011-8.145-1.029-10.342-2.726-10.4-2.77a.723.723,0,0,0-1.012.072.724.724,0,0,0,.065,1.021c.231.2,2.512,2.018,11.162,3.113,9.791,1.236,11.374-.4,11.625-2.349.006-.046.009-.088.017-.125a.811.811,0,0,0,.053-.621c-.183-.522-.54-.615-3.321-1.338a147.378,147.378,0,0,1-29.93-11.066c-5.729-2.865-12.182-7.469-17.7-11.523a12.248,12.248,0,0,1,1.887-2.049c.492-.674-.146-1.858-.939-1.1a13.549,13.549,0,0,0-2.11,2.3l-.889-.655c-7.786-5.74-11.605-8.466-13.342-7.685a1.456,1.456,0,0,0-.834,1.286c-.279,3.058,4.25,6.9,9.981,11.756.673.571,1.364,1.158,2.058,1.754a33.725,33.725,0,0,0-1.125,12.273c-3.419-2.641-16.321-14.458-24.552-22.956.8-.516,1.67-1,2.569-1.492,4.157-2.292,8.868-4.891,8.92-12.972.02-3.012-3.578-6.477-8.557-11.271-5.468-5.265-8.82-12.773-14.193-20.418s-7.3-10.163-7.3-10.163-9.724-20.848-16.541-24.109a15.46,15.46,0,0,0-13.059-.583c-6.367,2.8-11.477,10.361-15.187,22.481-5.419,17.7-8.192,36.121-9.752,49.176-5.018,4.9-9.526,9.211-11.8,11.069-5.16,4.223-18.391,24.228-17.6,27.6.329,1.394,3.932,3.6,12.078,8.3,4.175,2.41,9.894,5.71,10.349,6.641-.011.035-.118.173-.452.339-1.98.986-7.9,1.148-11.233-.038a52.252,52.252,0,0,1-5.744-2.629,38.64,38.64,0,0,0-8.192-3.411c-.976-.221-1.92-.367-2.753-.5-3.215-.5-4.52-.792-4.52-3.137a8.006,8.006,0,0,1,1.581-4.437,6.521,6.521,0,0,0,.544.61,3.116,3.116,0,0,0,3.4.839A3.1,3.1,0,0,0,679.05-1629a2.318,2.318,0,0,0-1.356-2.221,3.479,3.479,0,0,0-3.489.31c-.165.1-.327.209-.487.326.095-1.685,1.227-4.534,3.741-10.663.769-1.875,1.657-4.041,2.667-6.556,4.3-10.7,16.918-19.708,12.1-26.156-.585-1.057-1.743-1.1-1.158.865,4.4,5.892-8.341,14.935-12.285,24.751-1.009,2.513-1.9,4.676-2.664,6.548-3.007,7.332-4.266,10.4-3.752,12.488a9.616,9.616,0,0,0-2.312,5.863c0,3.679,2.79,4.111,5.745,4.567.85.132,1.729.268,2.655.477a37.784,37.784,0,0,1,7.859,3.292,54.3,54.3,0,0,0,5.912,2.7,20.993,20.993,0,0,0,6.507.917c2.894,0,5.639-.477,6.634-1.49a1.5,1.5,0,0,0,.372-1.621c-.448-1.193-3.687-3.16-10.971-7.364-4.37-2.522-10.973-6.332-11.391-7.375-.3-2.031,10.674-20.889,17.105-26.149,2.137-1.749,6.068-5.477,10.616-9.908-.372,3.25-.667,6.11-.91,8.46-.213,2.064-.381,3.694-.526,4.857-.727,5.812,3.625,7.279,7.465,8.574a16.558,16.558,0,0,1,5.064,2.338c1.119.91,3.072,3.408,2.907,4.565a.551.551,0,0,1-.4.458c-1.83.775-9.7-1.1-14.034-3.335a40.726,40.726,0,0,0-10.766-3.244.729.729,0,0,0-.822.607.723.723,0,0,0,.607.822A40.142,40.142,0,0,1,710-1638.2c4.136,2.135,12.619,4.5,15.26,3.382a1.971,1.971,0,0,0,1.268-1.586c.3-2.095-2.446-5.093-3.425-5.891a17.508,17.508,0,0,0-5.516-2.586c-3.795-1.28-7.071-2.385-6.492-7.026.147-1.177.316-2.815.53-4.886.285-2.763.643-6.232,1.114-10.212,3.348-3.279,6.941-6.837,10.36-10.224,5.061-5.015,9.433-9.346,11.842-11.6a103.436,103.436,0,0,0,11.157-12.9c2.352,9.827,8.711,25.359,11.226,29.93,3.463,6.3,9.586,10.462,15.98,10.87a25.884,25.884,0,0,0,6.424-.341c.756.851,1.61,1.775,2.537,2.75a8.988,8.988,0,0,0-3.527,7.154c-.288,8.64,3.859,19.825,13.643,23.966a18.023,18.023,0,0,0,6.973,1.427,13.518,13.518,0,0,0,8.235-2.531,7.339,7.339,0,0,0,2.795-4.136l.39.281a87.9,87.9,0,0,0,21.651,11.684c11.813,4.562,17.96,5.524,23.383,6.372,1.085.17,2.139.335,3.2.523,4.387.78,10.97.665,11.922-1.577.254-.6.237-1.55-1.3-2.661" transform="translate(-343.056 2166.448)" fill="#09090a"/>
  </g>
</svg>
