<svg xmlns="http://www.w3.org/2000/svg" xmlns:xlink="http://www.w3.org/1999/xlink" width="201" height="193" viewBox="0 0 201 193">
  <defs>
    <clipPath id="clip-path">
      <rect id="Rectangle_15" data-name="Rectangle 15" width="201" height="193" transform="translate(333 85)" fill="#fff" stroke="#000000" stroke-width="1"/>
    </clipPath>
  </defs>
  <g id="balasana" transform="translate(-333 -85)" clip-path="url(#clip-path)">
    <g id="balasana-2" data-name="balasana" transform="translate(2.488 51.471)">
      <path id="Tracé_1" data-name="Tracé 1" d="M1706.071,1446.08s-3.042-9.014,3.7-6.513,15.039,1.8,16.719,2.786,5.87,7.911,0,8.679a239.913,239.913,0,0,1-38.925,2.151c-20.111-.406-37.359.976-52.7,0s-13.946-4.139-17.985-4.677-3.73,2.93,1.827,2.526,27.951-10.428,36.021-11.464,25.855-4.135,30.382-7,12.813-13.059,5.021-19.84-11.106-9.848-22.585-8.279-26.216,9.15-32.681,12.21-29.535,16.966-31.869,18.249-21.5,14.017-29.735,16.129-23.288,10.2-31.993,10.2h-12.75" transform="translate(-1198 -1237.054)" fill="none" stroke="#000000" stroke-linecap="round" stroke-width="2"/>
      <path id="Tracé_2" data-name="Tracé 2" d="M416.947,191.474s-11.372,2.466-18.38,2.466-11.366-6.193-19.065,0-13.055,6.837-10.943,14.91,4.371,17.818,8.466,17.683,14.332-1.466,17.359-4.793,9.071-3.871,7.908-8.128c-.894-3.269.14-5.74-.43-7.415s-3.345.519-1.329,2.557,3.712,1.649,9.1,3.127,5.186,9.321,9.03,8.473" transform="translate(-1.872 -3.354)" fill="none" stroke="#000000" stroke-linecap="round" stroke-width="2"/>
    </g>
  </g>
</svg>
