<svg xmlns="http://www.w3.org/2000/svg" xmlns:xlink="http://www.w3.org/1999/xlink" width="130" height="130" viewBox="0 0 130 130">
  <defs>
    <clipPath id="clip-path">
      <rect id="Rectangle_13" data-name="Rectangle 13" width="130" height="130" transform="translate(115 -47)" fill="#fff" stroke="#000000" stroke-width="1"/>
    </clipPath>
  </defs>
  <g id="Groupe_de_masques_3" data-name="Groupe de masques 3" transform="translate(245 83) rotate(180)" clip-path="url(#clip-path)">
    <path id="path384" d="M1824.316-3520.871a30.1,30.1,0,0,1-.781,20.822c-.26.26-.26.521-.521.781a28.891,28.891,0,0,1-13.534,14.315,30.99,30.99,0,0,1,1.041-20.562A30.5,30.5,0,0,1,1824.316-3520.871Zm17.178-22.9a30.5,30.5,0,0,1-13.795,15.357,29.309,29.309,0,0,1,.781-20.562c.26-.521.26-.781.521-1.042a28.891,28.891,0,0,1,13.534-14.315A30.817,30.817,0,0,1,1841.494-3543.776Zm-34.617,3.644a29.888,29.888,0,0,1,15.356,14.056,31.671,31.671,0,0,1-20.822-1.042c-.26-.26-.521-.26-.781-.521a28.89,28.89,0,0,1-14.315-13.534A30.82,30.82,0,0,1,1806.877-3540.132Zm-6.247,12.494c-.521.26-.781.26-1.3.521a45.15,45.15,0,0,0-4.945,2.6,38.165,38.165,0,0,0-3.384-2.343l5.466-3.123A13.209,13.209,0,0,0,1800.631-3527.639Zm22.384,28.37c.26.521.26.781.521,1.3a42.5,42.5,0,0,0,2.342,4.945,23.792,23.792,0,0,1-2.082,3.384,58.372,58.372,0,0,1-3.123-5.466A21.54,21.54,0,0,0,1823.015-3499.269Zm5.986-50.754c-.26-.521-.26-.781-.521-1.3a22.642,22.642,0,0,0-2.6-4.945l2.343-3.124a34.481,34.481,0,0,1,3.123,5.206A13.192,13.192,0,0,0,1829-3550.022Zm16.137,40.863a30.5,30.5,0,0,1-15.356-13.794,29.312,29.312,0,0,1,20.562.781c.521.261.781.521,1.041.521a30.055,30.055,0,0,1,14.315,13.534A30.821,30.821,0,0,1,1845.138-3509.159Zm6.247-12.493c.521,0,.781-.26,1.3-.521a42.377,42.377,0,0,0,4.945-2.342c1.041.521,2.082,1.3,3.384,2.082a29.282,29.282,0,0,1-5.466,3.124A21.512,21.512,0,0,0,1851.385-3521.652Zm0-5.987a34.324,34.324,0,0,0-12.493-2.342,35.841,35.841,0,0,0,7.288-10.411c0-.521.26-.781.521-1.3a30.417,30.417,0,0,0,1.562-5.206,34.37,34.37,0,0,0-.781-19.781c-.26-.781-.521-1.562-.781-2.6-.521-.781-.781-1.562-1.3-2.342a30.191,30.191,0,0,0-6.507-9.37,38.435,38.435,0,0,0-11.712-7.808l-1.3-.521-1.041.521a38.434,38.434,0,0,0-11.713,7.808,33.854,33.854,0,0,0-4.685,5.986,17.943,17.943,0,0,0,2.082.781l3.123,1.562a28.432,28.432,0,0,1,3.384-4.425,34.184,34.184,0,0,1,8.849-6.246,31.514,31.514,0,0,1,9.11,6.246,33.059,33.059,0,0,1,5.466,7.548,36.073,36.073,0,0,0-14.575,13.274,31.385,31.385,0,0,0-5.205-6.767,38.552,38.552,0,0,0-9.11-6.507,24.264,24.264,0,0,0-2.6-1.3l-2.343-.78a35.1,35.1,0,0,0-11.452-1.822,36.074,36.074,0,0,0-13.795,2.6l-1.041.521-.521,1.041a36.075,36.075,0,0,0-2.6,13.794,39.716,39.716,0,0,0,.781,7.809,15.448,15.448,0,0,1,2.082-1.041c1.041-.26,2.082-.781,3.123-1.041a42.572,42.572,0,0,1-.521-5.727,29.7,29.7,0,0,1,1.822-10.671,36.711,36.711,0,0,1,10.671-1.822,29.466,29.466,0,0,1,9.37,1.562,32.124,32.124,0,0,0-1.822,10.931,28.279,28.279,0,0,0,.26,4.685,20.679,20.679,0,0,1,5.726,1.562,50.539,50.539,0,0,1-.521-6.247,34.659,34.659,0,0,1,1.3-8.849,24.738,24.738,0,0,1,7.288,5.206,31.526,31.526,0,0,1,6.247,9.109,34.32,34.32,0,0,0-2.343,12.493,43.072,43.072,0,0,0-10.671-7.288c-.26,0-.521-.26-1.041-.521a30.473,30.473,0,0,0-5.205-1.562,34.224,34.224,0,0,0-19.781.781c-.781.26-1.822.521-2.6.781-.781.521-1.562.781-2.343,1.3a27.053,27.053,0,0,0-9.37,6.767,35.548,35.548,0,0,0-7.808,11.712l-.52,1.042.52,1.041a38.445,38.445,0,0,0,7.808,11.712,33.87,33.87,0,0,0,5.986,4.685,18,18,0,0,0,.781-2.083,28.338,28.338,0,0,1,1.562-2.863c-1.562-1.3-3.123-2.343-4.425-3.644a34.2,34.2,0,0,1-6.246-8.849,31.525,31.525,0,0,1,6.246-9.11,33.059,33.059,0,0,1,7.548-5.466,36.069,36.069,0,0,0,13.274,14.576,31.363,31.363,0,0,0-6.767,5.206,38.549,38.549,0,0,0-6.507,9.109,24.158,24.158,0,0,0-1.3,2.6l-.781,2.343a35.113,35.113,0,0,0-1.822,11.452,36.076,36.076,0,0,0,2.6,13.795l.521,1.041,1.041.521a36.074,36.074,0,0,0,13.795,2.6,39.73,39.73,0,0,0,7.808-.781,5.227,5.227,0,0,1-1.041-2.082c-.26-1.041-.781-2.083-1.041-3.124a21.353,21.353,0,0,1-5.726.521,29.7,29.7,0,0,1-10.671-1.822,29.694,29.694,0,0,1-1.822-10.671,35,35,0,0,1,1.3-9.109,41.493,41.493,0,0,0,11.192,1.562,28.294,28.294,0,0,0,4.685-.26,23.464,23.464,0,0,1,1.561-5.726,50.544,50.544,0,0,1-6.246.521,34.666,34.666,0,0,1-8.849-1.3,24.735,24.735,0,0,1,5.205-7.288,31.514,31.514,0,0,1,9.11-6.247,33.326,33.326,0,0,0,12.493,2.342,37.019,37.019,0,0,0-7.288,10.671c0,.26-.26.521-.521,1.041a39.507,39.507,0,0,0-1.561,5.206,34.213,34.213,0,0,0,.781,19.781c.26.781.521,1.822.781,2.6.521.781.781,1.562,1.3,2.342a30.2,30.2,0,0,0,6.507,9.37,38.443,38.443,0,0,0,11.713,7.808l1.041.521,1.3-.521a38.444,38.444,0,0,0,11.712-7.808,33.89,33.89,0,0,0,4.685-5.986,18.026,18.026,0,0,0-2.082-.781l-3.124-1.562a28.4,28.4,0,0,1-3.383,4.425,31.536,31.536,0,0,1-9.11,6.247,34.212,34.212,0,0,1-8.849-6.247,33.061,33.061,0,0,1-5.466-7.548,33.768,33.768,0,0,0,14.315-13.274,44.442,44.442,0,0,0,5.466,6.767,38.553,38.553,0,0,0,9.109,6.507,24.211,24.211,0,0,0,2.6,1.3l2.343.781a36.514,36.514,0,0,0,25.247-.781l1.041-.521.521-1.041a36.071,36.071,0,0,0,2.6-13.795,39.713,39.713,0,0,0-.781-7.808,5.233,5.233,0,0,1-2.082,1.041,14.707,14.707,0,0,1-3.123,1.042,46.734,46.734,0,0,1,.521,5.726,29.692,29.692,0,0,1-1.822,10.671,31.021,31.021,0,0,1-20.041.521,33.6,33.6,0,0,0,1.822-11.192,23.8,23.8,0,0,0-.26-4.425,36.8,36.8,0,0,1-5.726-1.822,50.554,50.554,0,0,1,.521,6.247,34.668,34.668,0,0,1-1.3,8.85,24.751,24.751,0,0,1-7.288-5.206,31.521,31.521,0,0,1-6.247-9.11,33.324,33.324,0,0,0,2.343-12.493,37.023,37.023,0,0,0,10.671,7.288c.26.26.521.26,1.041.521a17.277,17.277,0,0,0,5.206,1.562,36.517,36.517,0,0,0,19.781-.521,10.9,10.9,0,0,1,2.6-1.042c.781-.521,1.561-.781,2.342-1.3a30.2,30.2,0,0,0,9.37-6.507,38.445,38.445,0,0,0,7.808-11.712l.52-1.041-.52-1.042a39.6,39.6,0,0,0-7.808-11.973,52.741,52.741,0,0,0-5.986-4.685c-.26.781-.521,1.3-.781,2.082l-1.562,3.124a28.408,28.408,0,0,1,4.425,3.383,31.526,31.526,0,0,1,6.247,9.11,34.2,34.2,0,0,1-6.247,8.849,33.038,33.038,0,0,1-7.548,5.466,35.344,35.344,0,0,0-13.274-14.315,44.456,44.456,0,0,0,6.767-5.466,33.887,33.887,0,0,0,6.507-9.11,24.182,24.182,0,0,0,1.3-2.6l.781-2.342a36.516,36.516,0,0,0-.781-25.247l-.521-1.041-1.041-.521a36.077,36.077,0,0,0-13.795-2.6,39.729,39.729,0,0,0-7.808.781c.26.781.781,1.3,1.041,2.082.26,1.042.781,2.083,1.041,3.124a42.563,42.563,0,0,1,5.726-.521,36.709,36.709,0,0,1,10.671,1.822,31.022,31.022,0,0,1,.521,20.042,33.6,33.6,0,0,0-11.192-1.822,28.292,28.292,0,0,0-4.685.26,25.42,25.42,0,0,1-1.562,5.986,25.673,25.673,0,0,1,6.247-.781,34.646,34.646,0,0,1,8.849,1.3,24.755,24.755,0,0,1-5.206,7.288,31.521,31.521,0,0,1-9.11,6.246" transform="translate(-1646.008 3542.646)" fill="#090a0b"/>
  </g>
</svg>
