<svg xmlns="http://www.w3.org/2000/svg" xmlns:xlink="http://www.w3.org/1999/xlink" width="201" height="193" viewBox="0 0 201 193">
  <defs>
    <clipPath id="clip-path">
      <rect id="Rectangle_14" data-name="Rectangle 14" width="201" height="193" transform="translate(85 84)" fill="#fff" stroke="#000000" stroke-width="1"/>
    </clipPath>
  </defs>
  <g id="svastikasana" transform="translate(-85 -84)" clip-path="url(#clip-path)">
    <g id="svastikasana-2" data-name="svastikasana" transform="translate(-4451.837 1854.796)">
      <path id="path44" d="M4677.422-1610.962c-2.988,2.826-7.5,2.677-12.532,1.834a14.92,14.92,0,0,0,2.335-4.392c.135-.441.3-.864.469-1.273.442-1.1.863-2.141.408-3.193a4.258,4.258,0,0,0-2.608-2.024.757.757,0,0,0-.316-.05c-.067,0-6.643.422-13.64.422a.745.745,0,0,0-.746.746.746.746,0,0,0,.746.746c6.42,0,12.485-.35,13.564-.415a2.923,2.923,0,0,1,1.63,1.166c.207.482-.071,1.172-.421,2.045-.168.416-.358.89-.514,1.395a14.3,14.3,0,0,1-2.575,4.529c-.881-.167-1.774-.344-2.677-.525a67.218,67.218,0,0,0-9.568-1.446c-2.26-.113-6.673-.906-13.889-2.5-7.419-1.636-17.8-4.519-27.84-7.305-14.336-3.981-27.88-7.739-33.5-8.16-.08-.006-.164-.013-.248-.017a193.443,193.443,0,0,0,16.582-24.394l.557-.96c3.895-6.666,6.789-11.806,8.589-15.55.338,1.432.76,3.05,1.236,4.852.775,2.955,1.513,5.744,1.791,7.709.075.531.16,1.061.244,1.591.848,5.4,1.724,10.99-5.024,20.82a2.288,2.288,0,0,0-.177,2.558c2.622,4.706,24.021,6.64,34.8,6.129,4.132-.2,9.974-.916,16.16-1.676,6.719-.826,14.731-1.811,21.168-2.11,4.86,4.852,8.324,7.38,12.228,7.733.021,0,.321.027.818.058C4683.954-1617.943,4680.2-1613.592,4677.422-1610.962Zm-21.181,6.321c-2.537.195-5.45-.8-8.822-1.957-4.186-1.432-8.859-3.034-14.437-3.034-.806,0-1.632.033-2.479.106-3.566.307-8.139,1-12.982,1.738-10.988,1.671-23.444,3.564-32.2,2.406-11.02-1.459-13.375-2.934-16.3-7.616a16.8,16.8,0,0,1-2.15-6.847,109.382,109.382,0,0,0,7.428-8.075c.418,0,.876.016,1.34.05,5.476.411,19.575,4.324,33.212,8.11,10.06,2.792,20.462,5.681,27.919,7.324,7.3,1.61,11.789,2.414,14.137,2.532a66.161,66.161,0,0,1,9.346,1.417c.611.123,1.218.245,1.825.361C4660.236-1606.229,4658.066-1604.783,4656.241-1604.642Zm-88.415-20.384a6.014,6.014,0,0,1,4.371-2.724q-2.667,3.113-5.324,5.8A7.305,7.305,0,0,1,4567.826-1625.025Zm34.112-51.675a2.784,2.784,0,0,1-.127,1.126A2.238,2.238,0,0,1,4601.938-1676.7Zm80.975,47.849a9.119,9.119,0,0,1,1.606,4.748c-.245-.019-.484-.036-.729-.058-3.208-.291-6.229-2.363-10.311-6.318C4678.357-1630.589,4682.007-1630.2,4682.913-1628.852Zm-130.437,3a1.385,1.385,0,0,1-.961-.748,2.513,2.513,0,0,1,1.416-3.11,4.327,4.327,0,0,1,2.07-.543,3.485,3.485,0,0,1,2.9,1.5c.509.706.295,1.587-.337,2.545A10.786,10.786,0,0,1,4552.476-1625.853Zm63.837-80.487c.013.075.021.209-.026.25a2.061,2.061,0,0,1-2.25.3c-1.729-.735-3.625-3.379-4.882-7.887C4613.463-1710.73,4616.122-1707.661,4616.313-1706.34Zm82.227,80.05c-.78-1.3-2.988-2.157-5.543-3.152s-5.467-2.133-6.049-3.534a1.361,1.361,0,0,1,.046-1.119c.355-.818.755-2,.115-2.79-.764-.944-2.319-.626-4.283-.224-1.736.355-3.709.759-4.986.234-2.032-.835-9.042-10.158-14.154-16.966-3.587-4.772-6.681-8.89-8.2-10.408-3.807-3.8-13-20.373-16.853-28.192-.936-1.891-4.323-2.692-8.252-3.619-4.118-.972-8.792-2.075-9.6-4.432-.4-1.158.161-2.694,1.665-4.567,4.831-6.011,10.054-20.757,6.926-29.285a8.458,8.458,0,0,0-6.631-5.793c-5.075-.979-9.078-.19-11.907,2.343-3.527,3.162-5.046,9.028-4.4,16.963.118,1.406.291,2.757.514,4.039a41.763,41.763,0,0,0-4.341-2.149.746.746,0,0,0-.978.4.746.746,0,0,0,.4.977,41.437,41.437,0,0,1,5.315,2.72c1.235,5.416,3.448,9.3,6.115,10.435a3.546,3.546,0,0,0,3.782-.523,1.7,1.7,0,0,0,.56-1.616c-.311-2.156-4.017-5.989-9.146-9.22a42.282,42.282,0,0,1-.725-5.182c-.61-7.452.737-12.891,3.9-15.729,2.462-2.205,6.037-2.875,10.631-1.989a7.043,7.043,0,0,1,5.51,4.843c2.853,7.767-2.016,22.019-6.686,27.835-1.871,2.33-2.5,4.289-1.914,5.986,1.079,3.135,5.956,4.287,10.673,5.4,3.11.734,6.634,1.566,7.254,2.826,3.9,7.9,13.219,24.675,17.139,28.588,1.446,1.442,4.656,5.721,8.063,10.248,7.241,9.636,12.54,16.531,14.781,17.451,1.7.7,3.9.245,5.852-.154.947-.193,2.537-.518,2.814-.306,0,0,.119.27-.315,1.266a2.824,2.824,0,0,0-.055,2.285c.825,1.987,3.907,3.189,6.888,4.351,2.01.783,4.286,1.672,4.8,2.53.1.17.075.214.06.239-.629,1.005-5.8,1.546-11.284,1.277a10.643,10.643,0,0,0-1.885-5.678c-1.307-1.943-5.623-2.488-12.122-2.237-2.069-2.089-4.4-4.6-7.157-7.56-4.409-4.739-9.893-10.638-16.974-17.682a80.86,80.86,0,0,1-12.156-15.983c-.329-3.849-1.117-5.36-1.189-5.487a.74.74,0,0,0-.851-.358,1.43,1.43,0,0,0-1.028,1.066c-.3,1.111.459,3.065,1.584,5.174.325,4.239.08,11.456-2.436,22.95-1.876,8.57-1.838,13.757.113,16.32a5.094,5.094,0,0,0,4.038,1.935.745.745,0,0,0,.784-.707.746.746,0,0,0-.708-.784,3.63,3.63,0,0,1-2.926-1.349c-1.644-2.159-1.6-7.1.157-15.1a94.943,94.943,0,0,0,2.6-20.51c.4.638.81,1.265,1.209,1.858a86.36,86.36,0,0,0,9.763,12.026c7.057,7.023,12.531,12.91,16.932,17.64,2.345,2.524,4.4,4.736,6.255,6.643-5.475.319-12.257,1.1-19.954,2.043-6.158.757-11.979,1.472-16.051,1.667-12.671.606-31.52-1.938-33.43-5.364a.839.839,0,0,1,.106-.99c7.081-10.318,6.157-16.2,5.269-21.893q-.127-.787-.241-1.571c-.295-2.051-1.04-4.882-1.829-7.88-.484-1.841-1.184-4.5-1.644-6.753,1.054-2.515,1.387-4.153.948-4.984a1.32,1.32,0,0,0-1.121-.713,1.436,1.436,0,0,0-1.239.514c-.669.811-.628,2.515-.139,5.069-2.247,5.009-6.947,13.061-9.357,17.2l-.561.961a188.869,188.869,0,0,1-17.2,25.123c-3.326.154-5.686,1.36-7.04,3.6a9.778,9.778,0,0,0-1.2,5.348c-.649.624-1.293,1.227-1.938,1.811-.3.273-.522.474-.658.61-2.785,2.749-11.263,3.619-13.294,2.323-.262-.167-.231-.243-.193-.352.328-.926,2.221-2.482,4.051-3.987a33.048,33.048,0,0,0,5.168-4.874,36.084,36.084,0,0,0,9.129-3.831c1.98-1.321,5.4-8.727,10.028-19.047,2.359-5.267,4.589-10.24,5.757-12,1.341-2.012,4.025-7.511,6.866-13.336,3.616-7.411,7.718-15.813,9.472-17.861,1.134-1.322,2.938-2.829,5.125-2.475,2.555.41,4.962,3.208,6.968,8.089,1.724,4.2,3.8,6.327,6.175,6.22,2.892-.086,5.732-3.579,7.785-9.583a.749.749,0,0,0-.468-.948.744.744,0,0,0-.943.465c-1.788,5.223-4.25,8.509-6.421,8.575-1.689.057-3.3-1.783-4.745-5.3-2.8-6.806-5.956-8.649-8.114-9-2.268-.368-4.514.666-6.5,2.978-1.88,2.193-5.842,10.32-9.678,18.178-2.821,5.776-5.479,11.233-6.77,13.162-1.239,1.86-3.384,6.657-5.876,12.213-3.258,7.273-7.718,17.233-9.5,18.416a32.579,32.579,0,0,1-7.267,3.225,2.982,2.982,0,0,0-.4-2.865,5.257,5.257,0,0,0-6.908-1.384c-2.007,1.117-2.838,3.118-2.07,4.981a2.811,2.811,0,0,0,1.905,1.609,9.3,9.3,0,0,0,3.971.045c-1.087,1.081-2.428,2.182-3.646,3.184-2.167,1.783-4.043,3.324-4.511,4.639a1.722,1.722,0,0,0,.8,2.111c2.769,1.766,11.979.6,15.146-2.518.121-.126.328-.311.611-.565q.549-.5,1.112-1.025a17.544,17.544,0,0,0,2.229,6.347c3.368,5.383,6.449,6.858,17.369,8.3,8.966,1.192,21.536-.723,32.625-2.409,4.813-.732,9.362-1.423,12.882-1.726,6.378-.545,11.649,1.26,16.307,2.854,3.209,1.1,6.02,2.063,8.643,2.063.256,0,.518-.01.775-.03,2.465-.188,5.272-2.165,7.46-4.645,5.741,1.027,10.984,1.37,14.63-2.08,4.591-4.341,7.12-8.658,7.524-12.657.873.038,1.922.069,3.051.069,3.841,0,8.516-.359,9.561-2.024a1.643,1.643,0,0,0-.042-1.8" transform="translate(14.091 22.817)" fill="#09090a"/>
    </g>
  </g>
</svg>
