<svg xmlns="http://www.w3.org/2000/svg" xmlns:xlink="http://www.w3.org/1999/xlink" width="201" height="193" viewBox="0 0 201 193">
  <defs>
    <clipPath id="clip-path">
      <rect id="Rectangle_17" data-name="Rectangle 17" width="201" height="193" transform="translate(822 88)" fill="#fff" stroke="#000000" stroke-width="1"/>
    </clipPath>
  </defs>
  <g id="ustrasana" transform="translate(-822 -88)" clip-path="url(#clip-path)">
    <g id="ustrasana-2" data-name="ustrasana" transform="translate(17.704 66.561)">
      <path id="Tracé_6" data-name="Tracé 6" d="M2082.359,1395.064c-4.42-1.713-6.828,4.173-8.513,5.2-3.138,1.917-7.044,3.5-9.337,4.776-3.319,1.84-8.891,4.111-5.009,6.018s15.285-.011,24.088,0,19.752-.865,27.623,0,27.741,2.563,32.245,2.215,9.156.443,10.015-2.215,7.728-21.871,5.883-40.717-2.877-34.813-8.82-44.484-27.38-26.015-35.149-26.79-16.006-1.209-18.579,0-11.044-5.128-13.219-4.75-5.594-1.076-9.673-3.526-5.074,2.46-7.135,4.4c-1.241,1.171-5.032,4.281-5.5,4.985a62.477,62.477,0,0,0-2.909,6.028c-.74,1.812-1.347,9.982-.95,11.787s6.365,11.283,10.442,12.651,8.929.137,10.346,0,5.154-1.26,5.766-2.222" transform="translate(-1204 -1202.859)" fill="none" stroke="#000000" stroke-linecap="round" stroke-width="2.5"/>
      <path id="Tracé_7" data-name="Tracé 7" d="M2101.784,1311.211a28.525,28.525,0,0,0,0-4.686c-.239-1.667,2.172-1.786,1.636-.719a7.864,7.864,0,0,1-3.153,3.243c-2.522,1.7-6.135.085-7.759,6.04s-.841,13.145,0,18.145,4.192,13.755,3.316,19.233-1.784,27.11-2.324,30.294-2.441,15.7-2.9,17.1-2.289,4.493-2.712,6.7,3.859,5.256,6.383,5.055,6.458.953,7.5-3.147-2.208-5.564-2.618-8.61,2.8-9.514,3.251-13.356,2.99-15.428,3.564-18.784" transform="translate(-1211.821 -1206.695)" fill="none" stroke="#000000" stroke-linecap="round" stroke-width="2.5"/>
      <path id="Tracé_8" data-name="Tracé 8" d="M2112.73,1339.42s12.55,4.021,16.529,4.021,8.521,2.294,9.66,7.232-2.991,13.237-2.164,16.769,5.06,11.2,7.909,14.994.941,7.617,2.1,13.7.615,7.974,2.54,10.633,2.455-1.02,2.19-1.02a7.153,7.153,0,0,1-2.362,1.02c-9.371.737-27.371,1.261-34.252,3.278" transform="translate(-1218.182 -1215.471)" fill="none" stroke="#000000" stroke-linecap="round" stroke-width="2.5"/>
    </g>
  </g>
</svg>
