<svg xmlns="http://www.w3.org/2000/svg" xmlns:xlink="http://www.w3.org/1999/xlink" width="201" height="193" viewBox="0 0 201 193">
  <defs>
    <clipPath id="clip-path">
      <rect id="Rectangle_16" data-name="Rectangle 16" width="201" height="193" transform="translate(607 88)" fill="#fff" stroke="#000000" stroke-width="1"/>
    </clipPath>
  </defs>
  <g id="goddess" transform="translate(-607 -88)" clip-path="url(#clip-path)">
    <g id="posture_de_la_déesse" data-name="posture de la déesse" transform="translate(5.051 45.711)">
      <path id="Tracé_3" data-name="Tracé 3" d="M1828.374,1483.45a9.655,9.655,0,0,0,0,5.607c.942,2.929.665,5.552-2.779,5.552s-12.912-.006-17.618,0-9.761.251-7.3-1.99,7.9-1.548,10.23-3.562,7.033-.868,7.721-4.179.134-9.421,0-15.83.927-14.722,0-18.531-2.9-9.887,2.1-12.039,17.363-6.6,18.338-7.025,11.4-1.646,11.4-1.646,9.062-2.8,10.817-3.405,3.86-6.721,3.86-8.487a25.125,25.125,0,0,0,.521-4.867c-.312-5.095-2.741-14.012-2.977-16.263-.314-3.005-1.2-7.881-1.4-9.558s-3.65-4.82-7.383-4.544-27.525,3.155-30.707,0-1.611-16.146-2.464-21.255-1.03-11.572-2.1-15.517-.254-3.631,0-11.922,4.568-7.472,4.568-7.472a4.986,4.986,0,0,1,3.6,4.716c0,3.743,2.975,6.4,2.975,8.258s1.04,5.652-1.4,7.637-5.178-1.216-5.178-1.216" transform="translate(-1179.084 -1262.207)" fill="none" stroke="#000000" stroke-linecap="round" stroke-width="2.5"/>
      <path id="Tracé_4" data-name="Tracé 4" d="M1828.88,1354.228l1.871,13.977s-.062,6.9,1.4,6.9,13.528.051,18.155-1.7,13.082-2.419,14.858-2.488,10.918-2.713,10.918-2.713l2.173-5.516s-2.051-2.988-3.92-5.616-4.111-12.935-2.5-16.746,7.521-10.83,13.308-9.346,10.994,8.728,10.823,13.1-2.344,17.739-4.854,18.608-7.17,1.71-9.768-.332-2.085-9.624-2.442-11.43c-.169-1.153.08-2.294.344-2.053s.654-.424.592,2.317c-.07,3.1-1.259,2.93-1.58,3.865" transform="translate(-1181.86 -1262.619)" fill="none" stroke="#000000" stroke-linecap="round" stroke-width="2.5"/>
      <path id="Tracé_5" data-name="Tracé 5" d="M1885.351,1373.5a1.991,1.991,0,0,1,1.254-2.253c2.581-.814,8.866-.78,12.857-.78,5.817,0,16.7-.815,21.55,1.439s19.337,1.594,19.337,1.594,2.254-11.106,2.362-14.958,1.55-9.6,0-12.373-5.709-12.315-2.362-16.631,7.437,1.381,7.437,1.381,5.107,5.45,4.108,12.817-1.585,16.725-2.3,21.854,1.692,12.3-1.808,13.869-12.532,5.994-20.484,5.62-14.48-2.135-16.529-1.344-6.881,10.446-6.881,11.478-1.752,14.746-1.522,16.932c.164,1.55,1.976,11.542.962,12.261-1.283,1.608-4.512.638-4.34-.3.143-.779,3.579-.97,5.679-.722.081.006,1.745.469,1.8.5,2.371,1.365,30.5,9.968,33.877,11.4s9.082,3.859,9.245,7.631-1.808,22.064-1.808,22.064-1.555,12,0,14.94c.669,1.264.714,4.277,1.808,6.1,1.111,1.859,3.458,2.47,6.088,3.194,4.616,1.27,10.917,2.984,10.917,2.984s.288,3.6-6.774,2.633-19.611,1.016-21.452-1.368c-.76-.984.1-3.5.212-7.443.143-4.954-.212-11.6-.212-11.6l.212-11.27s-.278-8.41,0-10.787c.162-1.388,2.484-1.527,2.665-.351.058.359-2.224.8-2.224.8s-12.016-1.857-23.415-2.967-18.623-3.914-28.292-4.76-29.89,4.719-34.638,4.76-15.489,2.321-20.736,2.693c-1,.192-1.715-1.028-1.391-1.2s2.595-.121,2.688.524a35,35,0,0,1,.236,8.862c-.747,5.965-1.533,11.385-1.533,11.385" transform="translate(-1182.014 -1262.344)" fill="none" stroke="#000000" stroke-linecap="round" stroke-width="2.5"/>
    </g>
  </g>
</svg>
