<svg xmlns="http://www.w3.org/2000/svg" xmlns:xlink="http://www.w3.org/1999/xlink" width="201" height="193" viewBox="0 0 201 193">
  <defs>
    <clipPath id="clip-path">
      <rect id="Rectangle_19" data-name="Rectangle 19" width="201" height="193" transform="translate(85 380)" fill="#fff" stroke="#000000" stroke-width="1"/>
    </clipPath>
  </defs>
  <g id="Vrksahasana" transform="translate(-85 -380)" clip-path="url(#clip-path)">
    <path id="Vrikshasana" d="M613.609-4709.765a4.148,4.148,0,0,1-2.538.447c-.485-2.99-1.181-6.893-1.948-11.12a7.906,7.906,0,0,1,1.812-.963,11.888,11.888,0,0,1,5.371-.578,26.53,26.53,0,0,1,.251,3.327C616.566-4713.936,615.547-4710.864,613.609-4709.765Zm-5.3-.464c-.025-.018-2.576-1.849-1.2-7.863a5.443,5.443,0,0,1,1.1-1.561c.682,3.758,1.313,7.312,1.774,10.116A7.924,7.924,0,0,1,608.307-4710.229Zm-3.9-37.947c-.312-4.181-2.611-12.448-4.289-18.485a70.436,70.436,0,0,1-1.849-7.306,6.671,6.671,0,0,1,.305-1.961c.8.732,2.616,5.212,3.322,6.954,1.461,3.6,7.728,21.071,8.531,24.285.18.714.575,2,1.076,3.625a143.118,143.118,0,0,1,4.641,18.009,12.775,12.775,0,0,0-5.624.7,9.188,9.188,0,0,0-1.607.805c-.221-1.215-.448-2.454-.675-3.7C606.481-4734.9,604.658-4744.871,604.411-4748.176ZM593.4-4647.621a1,1,0,0,0-.607-.514,3.436,3.436,0,0,0-1.113-.143c-2.747,0-8.687,1.6-14.374,4.327a36.441,36.441,0,0,1-18.926,3.174,2.424,2.424,0,0,1-1.48-.732c6.914-1.968,9.4-5.913,9.775-6.58.6-.554,5.708-5.152,10.361-6.156a28.421,28.421,0,0,1,9.2-.147c1.326.133,2.579.26,3.771.26a14.6,14.6,0,0,0,6.36-1.931,15.554,15.554,0,0,1,2.919-1.2c1.269-.3,2.085-.3,2.5,0a1.709,1.709,0,0,1,.483,1.329,15.2,15.2,0,0,1-1.289,4.166,26.838,26.838,0,0,0-2.03,6.834c-.08.989-.091,1.988-.1,2.954-.027,2.748-.115,4.417-1.091,4.417a.653.653,0,0,1-.393-.182.507.507,0,0,0-.195-.2c-.8-.921-1.871-3.561-3.185-7.894C593.7-4646.744,593.522-4647.347,593.4-4647.621Zm-7.718-95.457c1.921-7.481,9.775-21.995,10.831-22.68a.5.5,0,0,1,.16-.028.446.446,0,0,1,.328.159c.466.484.635,1.9-.1,3.856-1.159,3.091-9.37,20.289-11.8,24.364A20.172,20.172,0,0,1,585.679-4743.078Zm15.708,16.91c-2.511,7.335-3.636,8.885-6.317,8.707-3.494-.225-5.887-6.853-5.953-16.491a9.449,9.449,0,0,1,3.128-5.994,7.106,7.106,0,0,1,4.738-2.149c.111,0,.223,0,.335.011a5.091,5.091,0,0,1,4.021,2.422.519.519,0,0,0-.01.541C604.383-4733.875,601.427-4726.267,601.388-4726.167Zm-11.151,60.588c1.283.784,3.028,2.67,2.842,3.842-.084.53-.616.916-1.583,1.145a3.855,3.855,0,0,1-3.042-.605c-1.808-1.153-3.262-3.5-4.19-5.869A11.989,11.989,0,0,1,590.237-4665.579Zm3.1-9.38c-.555-.229-1.127-.667-.627-2.057.634-1.759,2.65-2.874,5.394-2.983.137-.006.275-.009.414-.009a11.477,11.477,0,0,1,6.067,1.738C601.634-4675.787,595.655-4674,593.336-4674.959Zm23.881-47.981c-.919-6.1-3.3-13.841-4.714-18.429-.5-1.611-.889-2.884-1.061-3.572-.81-3.239-7.109-20.8-8.576-24.421-2.538-6.262-3.466-7.835-4.484-7.671-.8.13-1.039,1.295-1.145,3-.043.68.616,3.089,1.884,7.649,1.667,6,3.95,14.206,4.255,18.285.251,3.36,2.079,13.362,3.846,23.032.256,1.4.513,2.812.766,4.2a6.672,6.672,0,0,0-1.863,2.43.528.528,0,0,0-.021.069c-1.573,6.816,1.5,8.918,1.646,9.015a8.841,8.841,0,0,0,2.413.939,36.91,36.91,0,0,1,.556,4.54c-.1,3.648-2.132,18.356-4.682,23.845a4.29,4.29,0,0,1-.692,1.022,12.542,12.542,0,0,0-7.284-2.034c-3.182.128-5.55,1.5-6.331,3.672-.572,1.59-.131,2.82,1.21,3.371,2.726,1.119,9.276-.794,12.5-3.648a7.574,7.574,0,0,1,2.1,2.718c2.832,6.249,2.985,8.519,1.367,20.244-.494,3.58-1.255,7.645-1.993,11.575a123.163,123.163,0,0,0-1.932,12.176c-.073,1.188-.118,2.365-.161,3.5a63.3,63.3,0,0,1-1.336,12.169,62.023,62.023,0,0,0-1.192,10.337c-.073,1.285-.15,2.614-.262,3.966-.124,1.478-.1,2.93-.084,4.212.045,3.115,0,5.051-1.37,5.6-6.277,2.493-12.357,2.594-12.775,1.873,0,0,.005-.094.176-.29.776-.892,1.864-1.959,3.017-3.086,3.111-3.046,6.636-6.5,6.519-8.954l-.012-.256c-.593-12.373-.5-21.207.254-24.872a26.4,26.4,0,0,0-.1-9.8c.032,0,.062.012.094.012,2.075,0,2.1-2.646,2.131-5.447.01-.948.02-1.928.1-2.881a26.21,26.21,0,0,1,1.962-6.538c.789-2.015,1.413-3.606,1.361-4.6a2.635,2.635,0,0,0-.9-2.107c-.694-.517-1.732-.573-3.364-.182A16.322,16.322,0,0,0,595.91-4657a13.8,13.8,0,0,1-5.9,1.826c-1.139,0-2.368-.124-3.667-.255a29.279,29.279,0,0,0-9.525.167c-5.214,1.124-10.684,6.252-10.914,6.47a.554.554,0,0,0-.1.136,12.479,12.479,0,0,1-4.825,4.333,20.61,20.61,0,0,1-4.668,1.865c-.025-.061-.048-.123-.071-.187a6.073,6.073,0,0,1,.743-5.312l.308-.329c9.816-10.494,15.579-14.754,18.686-16.48a17.36,17.36,0,0,1,7.192-2.266c.993,2.687,2.626,5.363,4.734,6.709a4.855,4.855,0,0,0,3.842.74c1.763-.419,2.261-1.316,2.369-1.993.31-1.951-2.154-4.177-3.325-4.893a13.11,13.11,0,0,0-6.887-1.633,17.492,17.492,0,0,1-.522-1.953c-.755-3.7.883-9.268,2.328-14.184.436-1.481.846-2.88,1.188-4.2,1.324-5.122.293-7.767-.459-9.7-.13-.333-.254-.65-.357-.958-.665-2-2.45-14.26-2.791-22.667-.26-6.417-.4-9.729,1.039-12.543a82.317,82.317,0,0,0,2.139,9.824c.45,1.729.914,3.519,1.331,5.338.725,3.16,2.9,10.86,7.451,14.094a2.736,2.736,0,0,0,3,.238c3.884-2.016,6.345-12.153,6.273-25.822-.041-7.544-2.706-12.215-7.129-12.491a7.983,7.983,0,0,0-5.854,2.42c-2.048,1.938-3.468,4.715-3.453,6.756.073,10.538,2.728,17.252,6.927,17.522,3.5.226,4.844-2.034,7.359-9.383a22.126,22.126,0,0,0,1.112-4.175c-.008,14.623-2.947,22.815-5.713,24.251a1.711,1.711,0,0,1-1.921-.163c-4.259-3.027-6.342-10.435-7.039-13.479-.42-1.833-.887-3.631-1.338-5.368a70.194,70.194,0,0,1-2.257-10.987q.117-.156.241-.312c1.659-2.089,11.35-22.5,12.424-25.365.958-2.556.564-4.23-.125-4.944a1.463,1.463,0,0,0-1.565-.4c-1.958.652-10.018,17.6-11.509,23.408a22.139,22.139,0,0,0-.535,7.315c-2.341,3.36-2.2,6.758-1.9,14.3.324,7.982,2.082,20.669,2.844,22.953.108.325.238.658.374,1.008.74,1.9,1.661,4.266.42,9.063-.337,1.3-.745,2.693-1.179,4.166-1.479,5.032-3.155,10.735-2.349,14.685.119.582.275,1.188.466,1.8a18.464,18.464,0,0,0-7.353,2.369c-3.172,1.762-9.033,6.086-18.94,16.678l-.305.325c-1.248,1.328-1.7,4.3-.966,6.373.011.032.022.063.034.094.448.992.613.958.577.968a3.362,3.362,0,0,0,2.375,1.488,37.584,37.584,0,0,0,19.515-3.267c7.452-3.573,13.883-4.623,14.718-4.132.1.25.3.887.517,1.614,1.266,4.175,2.322,7.056,3.462,8.306a26.282,26.282,0,0,1,.291,10.28c-.775,3.748-.871,12.675-.275,25.132l.012.256c.1,1.991-3.4,5.412-6.207,8.162-1.168,1.142-2.27,2.221-3.074,3.146-.647.743-.431,1.294-.245,1.558.415.585,1.565.841,3.112.841a33.39,33.39,0,0,0,10.9-2.333c2.108-.837,2.07-3.5,2.026-6.578-.019-1.258-.038-2.685.08-4.111.114-1.365.637-10.541,1.434-14.167a64.121,64.121,0,0,0,1.359-12.353c.044-1.132.088-2.3.16-3.479.165-2.705,1.016-7.243,1.917-12.047.74-3.943,1.5-8.02,2-11.625,1.635-11.862,1.459-14.392-1.45-20.813a8.574,8.574,0,0,0-2.317-3.024,5.187,5.187,0,0,0,.808-1.21c2.65-5.708,4.672-20.437,4.778-24.255a34.559,34.559,0,0,0-.52-4.408,5.068,5.068,0,0,0,2.877-.6c2.322-1.312,3.492-4.608,3.48-9.8a26.751,26.751,0,0,0-.228-3.2" transform="translate(-412.994 5157.046)" fill="#09090a"/>
  </g>
</svg>
